<?xml version="1.0" encoding="UTF-8"?><svg id="Ebene_1" xmlns="http://www.w3.org/2000/svg" viewBox="0 0 228.13 45.52"><path d="M20.1.05c.14-.09.3-.03.43.04,6.66,3.88,13.34,7.73,20,11.61,0,3.43,0,6.86,0,10.28-1.5,0-3,0-4.5,0,0-2.4,0-4.8,0-7.2-.01-.18.03-.38-.08-.54-5.17-3-10.35-6-15.52-9-.28-.18-.54.1-.78.21-4.55,2.54-9.1,5.06-13.65,7.6-.5.26-.97.56-1.48.81-.03,8.55,0,17.1-.01,25.64-1.5,0-3,0-4.5,0,0-9.43,0-18.86,0-28.29C6.71,7.51,13.4,3.76,20.1.05Z" style="fill:#fff;"/><path d="M17.63,9.76c.84-.42,1.64-.94,2.51-1.31,4.43,2.42,8.82,4.92,13.25,7.36.01,2.06.02,4.12,0,6.18-1.5,0-2.99,0-4.49,0,0-1.17,0-2.33,0-3.5-2.93-1.66-5.88-3.28-8.82-4.93-2.93,1.6-5.87,3.17-8.81,4.76-.02,5.56,0,11.12-.01,16.68,8.24.04,16.49,0,24.73.02.08-1.18.01-2.37.03-3.55-.01-.73.03-1.46-.03-2.18-2.51.01-5.02,0-7.53,0,0-1.5-.01-2.99,0-4.49,4.02.02,8.04,0,12.05.01,0,4.9,0,9.8,0,14.71-11.26,0-22.53,0-33.79,0,0-7.95,0-15.89,0-23.84,3.62-1.99,7.27-3.93,10.9-5.9Z" style="fill:#fff;"/><text transform="translate(48.66 39.5)" style="fill:#fff; font-family:Inter-Bold, Inter; font-size:18px; font-weight:700;"><tspan x="0" y="0">H</tspan><tspan x="13.45" y="0" style="letter-spacing:-.02em;">A</tspan><tspan x="26.53" y="0">USVER</tspan><tspan x="87.69" y="0" style="letter-spacing:-.07em;">W</tspan><tspan x="105.07" y="0" style="letter-spacing:0em;">A</tspan><tspan x="118.51" y="0" style="letter-spacing:-.09em;">L</tspan><tspan x="127.05" y="0" style="letter-spacing:0em;">TUNG</tspan></text></svg>